# xmcd
#
# Track frame offsets:
#	150
#	13406
#	29533
#	39905
#	61366
#	73887
#	86420
#	108894
#	124959
#	140546
#	150954
#	168356
#	182321
#	197173
#	225910
#	239437
#
# Disc length: 3372 seconds
#
# Revision: 1
# Processed by: cddbd v1.5.2PL0 Copyright (c) Steve Scherf et al.
# Submitted via: audiograbber 1.83.01
#
DISCID=cd0d2a10
DTITLE=Dean Boike - The Road I Go
DYEAR=2007
DGENRE=Country
TTITLE0=Dust My Broom
TTITLE1=Key To The Highway
TTITLE2=Evansdale
TTITLE3=Never Been To The Delta
TTITLE4=Me and The Devil Blues
TTITLE5=Sweet Home Chicago
TTITLE6=Uncle Fred's Blues
TTITLE7=Walking Blues
TTITLE8=Worried Life Blues
TTITLE9=Jodie's Love
TTITLE10=Come Home To My Kitchen
TTITLE11=Catfish Blues
TTITLE12=Hoochie Coochie Man
TTITLE13=Ode To Blues
TTITLE14=The Road I Go
TTITLE15=Mamma Don't Allow
EXTD=
EXTT0=
EXTT1=
EXTT2=
EXTT3=
EXTT4=
EXTT5=
EXTT6=
EXTT7=
EXTT8=
EXTT9=
EXTT10=
EXTT11=
EXTT12=
EXTT13=
EXTT14=
EXTT15=
PLAYORDER=
